<svg xmlns="http://www.w3.org/2000/svg" width="552.385" height="235.544" viewBox="0 0 552.385 235.544">
  <g id="Group_691" data-name="Group 691" style="mix-blend-mode: overlay;isolation: isolate">
    <g id="Group_422" data-name="Group 422" transform="translate(153.637 154.542)">
      <g id="Group_417" data-name="Group 417" transform="translate(22.656 42.688)">
        <path id="Path_378" data-name="Path 378" d="M270.633,604.168a4.018,4.018,0,1,1-4.018-4.018A4.021,4.021,0,0,1,270.633,604.168Zm-7.281,0a3.265,3.265,0,1,0,3.264-3.264A3.268,3.268,0,0,0,263.352,604.168Z" transform="translate(-262.598 -600.15)" fill="#fff"/>
      </g>
      <g id="Group_418" data-name="Group 418" transform="translate(22.699)">
        <path id="Path_379" data-name="Path 379" d="M270.654,584.523a4.018,4.018,0,1,1-4.018-4.018A4.022,4.022,0,0,1,270.654,584.523Zm-7.282,0a3.264,3.264,0,1,0,3.264-3.264A3.268,3.268,0,0,0,263.372,584.523Z" transform="translate(-262.618 -580.505)" fill="#fff"/>
      </g>
      <g id="Group_419" data-name="Group 419" transform="translate(0 4.019)">
        <rect id="Rectangle_57" data-name="Rectangle 57" width="0.377" height="42.851" fill="#fff"/>
      </g>
      <g id="Group_420" data-name="Group 420" transform="translate(0 3.642)">
        <rect id="Rectangle_58" data-name="Rectangle 58" width="23.039" height="0.377" fill="#fff"/>
      </g>
      <g id="Group_421" data-name="Group 421" transform="translate(0 46.493)">
        <rect id="Rectangle_59" data-name="Rectangle 59" width="23.039" height="0.377" fill="#fff"/>
      </g>
    </g>
    <g id="Group_428" data-name="Group 428" transform="translate(333.698 18.306)">
      <g id="Group_423" data-name="Group 423" transform="translate(0 22.656)">
        <path id="Path_380" data-name="Path 380" d="M339.055,536.271a4.018,4.018,0,1,1,4.018-4.018A4.022,4.022,0,0,1,339.055,536.271Zm0-7.282a3.265,3.265,0,1,0,3.266,3.264A3.268,3.268,0,0,0,339.055,528.989Z" transform="translate(-335.037 -528.235)" fill="#fff"/>
      </g>
      <g id="Group_424" data-name="Group 424" transform="translate(42.688 22.699)">
        <path id="Path_381" data-name="Path 381" d="M358.7,536.291a4.018,4.018,0,1,1,4.018-4.018A4.022,4.022,0,0,1,358.7,536.291Zm0-7.284a3.265,3.265,0,1,0,3.264,3.266A3.269,3.269,0,0,0,358.7,529.007Z" transform="translate(-354.682 -528.255)" fill="#fff"/>
      </g>
      <g id="Group_425" data-name="Group 425" transform="translate(3.854)">
        <rect id="Rectangle_60" data-name="Rectangle 60" width="42.85" height="0.377" fill="#fff"/>
      </g>
      <g id="Group_426" data-name="Group 426" transform="translate(46.705)">
        <rect id="Rectangle_61" data-name="Rectangle 61" width="0.377" height="23.039" fill="#fff"/>
      </g>
      <g id="Group_427" data-name="Group 427" transform="translate(3.854)">
        <rect id="Rectangle_62" data-name="Rectangle 62" width="0.377" height="23.039" fill="#fff"/>
      </g>
    </g>
    <g id="Group_433" data-name="Group 433" transform="translate(0 26.054)">
      <g id="Group_429" data-name="Group 429" transform="translate(16.659 42.687)">
        <path id="Path_382" data-name="Path 382" d="M197.17,545.037a4.018,4.018,0,1,1-4.018-4.018A4.022,4.022,0,0,1,197.17,545.037Zm-7.284,0a3.265,3.265,0,1,0,3.266-3.264A3.269,3.269,0,0,0,189.886,545.037Z" transform="translate(-189.134 -541.019)" fill="#fff"/>
      </g>
      <g id="Group_430" data-name="Group 430" transform="translate(16.7)">
        <path id="Path_383" data-name="Path 383" d="M197.189,525.392a4.018,4.018,0,1,1-4.018-4.018A4.021,4.021,0,0,1,197.189,525.392Zm-7.282,0a3.264,3.264,0,1,0,3.264-3.264A3.268,3.268,0,0,0,189.907,525.392Z" transform="translate(-189.153 -521.374)" fill="#fff"/>
      </g>
      <g id="Group_431" data-name="Group 431" transform="translate(0 3.642)">
        <rect id="Rectangle_63" data-name="Rectangle 63" width="17.041" height="0.377" fill="#fff"/>
      </g>
      <g id="Group_432" data-name="Group 432" transform="translate(0 46.493)">
        <rect id="Rectangle_64" data-name="Rectangle 64" width="17.041" height="0.377" fill="#fff"/>
      </g>
    </g>
    <g id="Group_437" data-name="Group 437" transform="translate(358.137 186.119)">
      <g id="Group_434" data-name="Group 434">
        <path id="Path_384" data-name="Path 384" d="M346.284,599.055a4.018,4.018,0,1,1,4.018,4.018A4.021,4.021,0,0,1,346.284,599.055Zm7.282,0a3.265,3.265,0,1,0-3.264,3.264A3.269,3.269,0,0,0,353.566,599.055Z" transform="translate(-346.284 -595.037)" fill="#fff"/>
      </g>
      <g id="Group_435" data-name="Group 435" transform="translate(30.317 3.855)">
        <rect id="Rectangle_65" data-name="Rectangle 65" width="0.377" height="45.569" fill="#fff"/>
      </g>
      <g id="Group_436" data-name="Group 436" transform="translate(7.652 3.853)">
        <rect id="Rectangle_66" data-name="Rectangle 66" width="23.039" height="0.377" fill="#fff"/>
      </g>
    </g>
    <g id="Group_441" data-name="Group 441" transform="translate(227.967 226.466)">
      <g id="Group_438" data-name="Group 438">
        <path id="Path_385" data-name="Path 385" d="M290.4,621.641a4.018,4.018,0,1,1,4.018-4.018A4.024,4.024,0,0,1,290.4,621.641Zm0-7.284a3.265,3.265,0,1,0,3.266,3.266A3.268,3.268,0,0,0,290.4,614.357Z" transform="translate(-286.379 -613.605)" fill="#fff"/>
      </g>
      <g id="Group_439" data-name="Group 439" transform="translate(17.138)">
        <path id="Path_386" data-name="Path 386" d="M298.284,621.641a4.018,4.018,0,1,1,4.02-4.018A4.024,4.024,0,0,1,298.284,621.641Zm0-7.284a3.265,3.265,0,1,0,3.266,3.266A3.268,3.268,0,0,0,298.284,614.357Z" transform="translate(-294.266 -613.605)" fill="#fff"/>
      </g>
      <g id="Group_440" data-name="Group 440" transform="translate(8.021 3.829)">
        <rect id="Rectangle_67" data-name="Rectangle 67" width="9.542" height="0.377" fill="#fff"/>
      </g>
    </g>
    <g id="Group_445" data-name="Group 445" transform="translate(16.6 82.535)">
      <g id="Group_442" data-name="Group 442">
        <path id="Path_387" data-name="Path 387" d="M189.107,551.385a4.018,4.018,0,1,1,4.018,4.018A4.022,4.022,0,0,1,189.107,551.385Zm7.282,0a3.264,3.264,0,1,0-3.264,3.264A3.267,3.267,0,0,0,196.389,551.385Z" transform="translate(-189.107 -547.367)" fill="#fff"/>
      </g>
      <g id="Group_443" data-name="Group 443" transform="translate(0 17.138)">
        <path id="Path_388" data-name="Path 388" d="M189.107,559.272a4.018,4.018,0,1,1,4.018,4.018A4.022,4.022,0,0,1,189.107,559.272Zm7.282,0a3.264,3.264,0,1,0-3.264,3.264A3.267,3.267,0,0,0,196.389,559.272Z" transform="translate(-189.107 -555.254)" fill="#fff"/>
      </g>
      <g id="Group_444" data-name="Group 444" transform="translate(3.83 8.019)">
        <rect id="Rectangle_68" data-name="Rectangle 68" width="0.377" height="9.542" fill="#fff"/>
      </g>
    </g>
    <g id="Group_449" data-name="Group 449" transform="translate(29.979 95.686)">
      <g id="Group_446" data-name="Group 446">
        <path id="Path_389" data-name="Path 389" d="M195.264,557.437a4.018,4.018,0,1,1,4.016,4.018A4.02,4.02,0,0,1,195.264,557.437Zm7.282,0a3.265,3.265,0,1,0-3.266,3.264A3.269,3.269,0,0,0,202.546,557.437Z" transform="translate(-195.264 -553.419)" fill="#fff"/>
      </g>
      <g id="Group_447" data-name="Group 447" transform="translate(0 17.138)">
        <path id="Path_390" data-name="Path 390" d="M195.264,565.324a4.018,4.018,0,1,1,4.016,4.018A4.021,4.021,0,0,1,195.264,565.324Zm7.282,0a3.265,3.265,0,1,0-3.266,3.264A3.269,3.269,0,0,0,202.546,565.324Z" transform="translate(-195.264 -561.306)" fill="#fff"/>
      </g>
      <g id="Group_448" data-name="Group 448" transform="translate(3.828 8.019)">
        <rect id="Rectangle_69" data-name="Rectangle 69" width="0.377" height="9.542" fill="#fff"/>
      </g>
    </g>
    <g id="Group_453" data-name="Group 453" transform="translate(43.356 108.836)">
      <g id="Group_450" data-name="Group 450">
        <path id="Path_391" data-name="Path 391" d="M201.42,563.489a4.018,4.018,0,1,1,4.018,4.018A4.022,4.022,0,0,1,201.42,563.489Zm7.282,0a3.264,3.264,0,1,0-3.264,3.264A3.268,3.268,0,0,0,208.7,563.489Z" transform="translate(-201.42 -559.471)" fill="#fff"/>
      </g>
      <g id="Group_451" data-name="Group 451" transform="translate(0 17.138)">
        <path id="Path_392" data-name="Path 392" d="M201.42,571.376a4.018,4.018,0,1,1,4.018,4.018A4.022,4.022,0,0,1,201.42,571.376Zm7.282,0a3.264,3.264,0,1,0-3.264,3.264A3.268,3.268,0,0,0,208.7,571.376Z" transform="translate(-201.42 -567.358)" fill="#fff"/>
      </g>
      <g id="Group_452" data-name="Group 452" transform="translate(3.83 8.019)">
        <rect id="Rectangle_70" data-name="Rectangle 70" width="0.377" height="9.542" fill="#fff"/>
      </g>
    </g>
    <g id="Group_457" data-name="Group 457" transform="translate(56.732 121.987)">
      <g id="Group_454" data-name="Group 454">
        <path id="Path_393" data-name="Path 393" d="M207.576,569.541a4.018,4.018,0,1,1,4.018,4.018A4.022,4.022,0,0,1,207.576,569.541Zm7.284,0a3.265,3.265,0,1,0-3.266,3.264A3.269,3.269,0,0,0,214.86,569.541Z" transform="translate(-207.576 -565.523)" fill="#fff"/>
      </g>
      <g id="Group_455" data-name="Group 455" transform="translate(0 17.138)">
        <path id="Path_394" data-name="Path 394" d="M207.576,577.428a4.018,4.018,0,1,1,4.018,4.018A4.023,4.023,0,0,1,207.576,577.428Zm7.284,0a3.265,3.265,0,1,0-3.266,3.264A3.267,3.267,0,0,0,214.86,577.428Z" transform="translate(-207.576 -573.41)" fill="#fff"/>
      </g>
      <g id="Group_456" data-name="Group 456" transform="translate(3.83 8.019)">
        <rect id="Rectangle_71" data-name="Rectangle 71" width="0.377" height="9.542" fill="#fff"/>
      </g>
    </g>
    <g id="Group_461" data-name="Group 461" transform="translate(70.111 135.138)">
      <g id="Group_458" data-name="Group 458">
        <path id="Path_395" data-name="Path 395" d="M213.733,575.593a4.018,4.018,0,1,1,4.018,4.018A4.021,4.021,0,0,1,213.733,575.593Zm7.282,0a3.264,3.264,0,1,0-3.264,3.264A3.267,3.267,0,0,0,221.015,575.593Z" transform="translate(-213.733 -571.575)" fill="#fff"/>
      </g>
      <g id="Group_459" data-name="Group 459" transform="translate(0 17.138)">
        <path id="Path_396" data-name="Path 396" d="M213.733,583.48a4.018,4.018,0,1,1,4.018,4.018A4.021,4.021,0,0,1,213.733,583.48Zm7.282,0a3.264,3.264,0,1,0-3.264,3.264A3.268,3.268,0,0,0,221.015,583.48Z" transform="translate(-213.733 -579.462)" fill="#fff"/>
      </g>
      <g id="Group_460" data-name="Group 460" transform="translate(3.829 8.02)">
        <rect id="Rectangle_72" data-name="Rectangle 72" width="0.377" height="9.542" fill="#fff"/>
      </g>
    </g>
    <g id="Group_465" data-name="Group 465" transform="translate(324.687 10.993)">
      <g id="Group_462" data-name="Group 462">
        <path id="Path_397" data-name="Path 397" d="M330.89,518.461a4.018,4.018,0,1,1,4.018,4.016A4.021,4.021,0,0,1,330.89,518.461Zm7.281,0a3.264,3.264,0,1,0-3.264,3.264A3.269,3.269,0,0,0,338.172,518.461Z" transform="translate(-330.89 -514.443)" fill="#fff"/>
      </g>
      <g id="Group_463" data-name="Group 463" transform="translate(0 17.136)">
        <path id="Path_398" data-name="Path 398" d="M330.89,526.349a4.018,4.018,0,1,1,4.018,4.018A4.023,4.023,0,0,1,330.89,526.349Zm7.281,0a3.264,3.264,0,1,0-3.264,3.264A3.268,3.268,0,0,0,338.172,526.349Z" transform="translate(-330.89 -522.329)" fill="#fff"/>
      </g>
      <g id="Group_464" data-name="Group 464" transform="translate(3.829 8.019)">
        <rect id="Rectangle_73" data-name="Rectangle 73" width="0.377" height="9.542" fill="#fff"/>
      </g>
    </g>
    <g id="Group_469" data-name="Group 469" transform="translate(311.875 10.993)">
      <g id="Group_466" data-name="Group 466">
        <path id="Path_399" data-name="Path 399" d="M324.994,518.461a4.018,4.018,0,1,1,4.018,4.016A4.022,4.022,0,0,1,324.994,518.461Zm7.284,0a3.265,3.265,0,1,0-3.266,3.264A3.269,3.269,0,0,0,332.278,518.461Z" transform="translate(-324.994 -514.443)" fill="#fff"/>
      </g>
      <g id="Group_467" data-name="Group 467" transform="translate(0 17.136)">
        <path id="Path_400" data-name="Path 400" d="M324.994,526.349a4.018,4.018,0,1,1,4.018,4.018A4.024,4.024,0,0,1,324.994,526.349Zm7.284,0a3.265,3.265,0,1,0-3.266,3.264A3.269,3.269,0,0,0,332.278,526.349Z" transform="translate(-324.994 -522.329)" fill="#fff"/>
      </g>
      <g id="Group_468" data-name="Group 468" transform="translate(3.83 8.019)">
        <rect id="Rectangle_74" data-name="Rectangle 74" width="0.377" height="9.542" fill="#fff"/>
      </g>
    </g>
    <g id="Group_473" data-name="Group 473" transform="translate(148.361 109.805)">
      <g id="Group_470" data-name="Group 470" transform="translate(0 17.138)">
        <path id="Path_401" data-name="Path 401" d="M257.78,571.822a4.018,4.018,0,1,1-4.018-4.018A4.024,4.024,0,0,1,257.78,571.822Zm-7.282,0a3.264,3.264,0,1,0,3.264-3.266A3.268,3.268,0,0,0,250.5,571.822Z" transform="translate(-249.744 -567.804)" fill="#fff"/>
      </g>
      <g id="Group_471" data-name="Group 471">
        <path id="Path_402" data-name="Path 402" d="M257.78,563.935a4.018,4.018,0,1,1-4.018-4.018A4.024,4.024,0,0,1,257.78,563.935Zm-7.282,0a3.264,3.264,0,1,0,3.264-3.266A3.268,3.268,0,0,0,250.5,563.935Z" transform="translate(-249.744 -559.917)" fill="#fff"/>
      </g>
      <g id="Group_472" data-name="Group 472" transform="translate(3.829 7.611)">
        <rect id="Rectangle_75" data-name="Rectangle 75" width="0.377" height="9.542" fill="#fff"/>
      </g>
    </g>
    <g id="Group_477" data-name="Group 477" transform="translate(160.264 109.805)">
      <g id="Group_474" data-name="Group 474" transform="translate(0 17.138)">
        <path id="Path_403" data-name="Path 403" d="M263.258,571.822a4.018,4.018,0,1,1-4.018-4.018A4.022,4.022,0,0,1,263.258,571.822Zm-7.282,0a3.264,3.264,0,1,0,3.264-3.266A3.268,3.268,0,0,0,255.976,571.822Z" transform="translate(-255.222 -567.804)" fill="#fff"/>
      </g>
      <g id="Group_475" data-name="Group 475">
        <path id="Path_404" data-name="Path 404" d="M263.258,563.935a4.018,4.018,0,1,1-4.018-4.018A4.022,4.022,0,0,1,263.258,563.935Zm-7.282,0a3.264,3.264,0,1,0,3.264-3.266A3.268,3.268,0,0,0,255.976,563.935Z" transform="translate(-255.222 -559.917)" fill="#fff"/>
      </g>
      <g id="Group_476" data-name="Group 476" transform="translate(3.83 7.611)">
        <rect id="Rectangle_76" data-name="Rectangle 76" width="0.377" height="9.542" fill="#fff"/>
      </g>
    </g>
    <g id="Group_481" data-name="Group 481" transform="translate(172.168 109.805)">
      <g id="Group_478" data-name="Group 478" transform="translate(0 17.138)">
        <path id="Path_405" data-name="Path 405" d="M268.736,571.822a4.018,4.018,0,1,1-4.018-4.018A4.022,4.022,0,0,1,268.736,571.822Zm-7.282,0a3.265,3.265,0,1,0,3.264-3.266A3.268,3.268,0,0,0,261.454,571.822Z" transform="translate(-260.7 -567.804)" fill="#fff"/>
      </g>
      <g id="Group_479" data-name="Group 479">
        <path id="Path_406" data-name="Path 406" d="M268.736,563.935a4.018,4.018,0,1,1-4.018-4.018A4.022,4.022,0,0,1,268.736,563.935Zm-7.282,0a3.265,3.265,0,1,0,3.264-3.266A3.268,3.268,0,0,0,261.454,563.935Z" transform="translate(-260.7 -559.917)" fill="#fff"/>
      </g>
      <g id="Group_480" data-name="Group 480" transform="translate(3.83 7.611)">
        <rect id="Rectangle_77" data-name="Rectangle 77" width="0.377" height="9.542" fill="#fff"/>
      </g>
    </g>
    <g id="Group_485" data-name="Group 485" transform="translate(184.071 92.628)">
      <g id="Group_482" data-name="Group 482" transform="translate(0 17.138)">
        <path id="Path_407" data-name="Path 407" d="M274.214,563.917A4.018,4.018,0,1,1,270.2,559.9,4.021,4.021,0,0,1,274.214,563.917Zm-7.282,0a3.265,3.265,0,1,0,3.264-3.264A3.268,3.268,0,0,0,266.932,563.917Z" transform="translate(-266.178 -559.899)" fill="#fff"/>
      </g>
      <g id="Group_483" data-name="Group 483">
        <path id="Path_408" data-name="Path 408" d="M274.214,556.03a4.018,4.018,0,1,1-4.018-4.018A4.021,4.021,0,0,1,274.214,556.03Zm-7.282,0a3.265,3.265,0,1,0,3.264-3.264A3.269,3.269,0,0,0,266.932,556.03Z" transform="translate(-266.178 -552.012)" fill="#fff"/>
      </g>
      <g id="Group_484" data-name="Group 484" transform="translate(3.83 7.612)">
        <rect id="Rectangle_78" data-name="Rectangle 78" width="0.377" height="9.542" fill="#fff"/>
      </g>
    </g>
    <g id="Group_489" data-name="Group 489" transform="translate(195.977 109.805)">
      <g id="Group_486" data-name="Group 486" transform="translate(0 17.138)">
        <path id="Path_409" data-name="Path 409" d="M279.693,571.822a4.018,4.018,0,1,1-4.018-4.018A4.024,4.024,0,0,1,279.693,571.822Zm-7.284,0a3.265,3.265,0,1,0,3.266-3.266A3.269,3.269,0,0,0,272.409,571.822Z" transform="translate(-271.657 -567.804)" fill="#fff"/>
      </g>
      <g id="Group_487" data-name="Group 487">
        <path id="Path_410" data-name="Path 410" d="M279.693,563.935a4.018,4.018,0,1,1-4.018-4.018A4.024,4.024,0,0,1,279.693,563.935Zm-7.284,0a3.265,3.265,0,1,0,3.266-3.266A3.269,3.269,0,0,0,272.409,563.935Z" transform="translate(-271.657 -559.917)" fill="#fff"/>
      </g>
      <g id="Group_488" data-name="Group 488" transform="translate(3.829 7.611)">
        <rect id="Rectangle_79" data-name="Rectangle 79" width="0.377" height="9.542" fill="#fff"/>
      </g>
    </g>
    <g id="Group_493" data-name="Group 493" transform="translate(207.88 109.805)">
      <g id="Group_490" data-name="Group 490" transform="translate(0 17.138)">
        <path id="Path_411" data-name="Path 411" d="M285.171,571.822a4.018,4.018,0,1,1-4.018-4.018A4.024,4.024,0,0,1,285.171,571.822Zm-7.284,0a3.265,3.265,0,1,0,3.266-3.266A3.269,3.269,0,0,0,277.887,571.822Z" transform="translate(-277.135 -567.804)" fill="#fff"/>
      </g>
      <g id="Group_491" data-name="Group 491">
        <path id="Path_412" data-name="Path 412" d="M285.171,563.935a4.018,4.018,0,1,1-4.018-4.018A4.024,4.024,0,0,1,285.171,563.935Zm-7.284,0a3.265,3.265,0,1,0,3.266-3.266A3.269,3.269,0,0,0,277.887,563.935Z" transform="translate(-277.135 -559.917)" fill="#fff"/>
      </g>
      <g id="Group_492" data-name="Group 492" transform="translate(3.829 7.611)">
        <rect id="Rectangle_80" data-name="Rectangle 80" width="0.377" height="9.542" fill="#fff"/>
      </g>
    </g>
    <g id="Group_497" data-name="Group 497" transform="translate(219.784 109.805)">
      <g id="Group_494" data-name="Group 494" transform="translate(0 17.138)">
        <path id="Path_413" data-name="Path 413" d="M290.649,571.822a4.018,4.018,0,1,1-4.018-4.018A4.024,4.024,0,0,1,290.649,571.822Zm-7.282,0a3.264,3.264,0,1,0,3.264-3.266A3.268,3.268,0,0,0,283.367,571.822Z" transform="translate(-282.613 -567.804)" fill="#fff"/>
      </g>
      <g id="Group_495" data-name="Group 495">
        <path id="Path_414" data-name="Path 414" d="M290.649,563.935a4.018,4.018,0,1,1-4.018-4.018A4.024,4.024,0,0,1,290.649,563.935Zm-7.282,0a3.264,3.264,0,1,0,3.264-3.266A3.268,3.268,0,0,0,283.367,563.935Z" transform="translate(-282.613 -559.917)" fill="#fff"/>
      </g>
      <g id="Group_496" data-name="Group 496" transform="translate(3.829 7.611)">
        <rect id="Rectangle_81" data-name="Rectangle 81" width="0.377" height="9.542" fill="#fff"/>
      </g>
    </g>
    <g id="Group_501" data-name="Group 501" transform="translate(231.687 109.805)">
      <g id="Group_498" data-name="Group 498" transform="translate(0 17.138)">
        <path id="Path_415" data-name="Path 415" d="M296.127,571.822a4.018,4.018,0,1,1-4.018-4.018A4.022,4.022,0,0,1,296.127,571.822Zm-7.282,0a3.264,3.264,0,1,0,3.264-3.266A3.268,3.268,0,0,0,288.845,571.822Z" transform="translate(-288.091 -567.804)" fill="#fff"/>
      </g>
      <g id="Group_499" data-name="Group 499">
        <path id="Path_416" data-name="Path 416" d="M296.127,563.935a4.018,4.018,0,1,1-4.018-4.018A4.022,4.022,0,0,1,296.127,563.935Zm-7.282,0a3.264,3.264,0,1,0,3.264-3.266A3.268,3.268,0,0,0,288.845,563.935Z" transform="translate(-288.091 -559.917)" fill="#fff"/>
      </g>
      <g id="Group_500" data-name="Group 500" transform="translate(3.83 7.611)">
        <rect id="Rectangle_82" data-name="Rectangle 82" width="0.377" height="9.542" fill="#fff"/>
      </g>
    </g>
    <g id="Group_505" data-name="Group 505" transform="translate(255.496 109.805)">
      <g id="Group_502" data-name="Group 502" transform="translate(0 17.138)">
        <path id="Path_417" data-name="Path 417" d="M307.081,571.822a4.017,4.017,0,1,1-4.016-4.018A4.022,4.022,0,0,1,307.081,571.822Zm-7.281,0a3.265,3.265,0,1,0,3.266-3.266A3.268,3.268,0,0,0,299.8,571.822Z" transform="translate(-299.048 -567.804)" fill="#fff"/>
      </g>
      <g id="Group_503" data-name="Group 503">
        <path id="Path_418" data-name="Path 418" d="M307.081,563.935a4.017,4.017,0,1,1-4.016-4.018A4.022,4.022,0,0,1,307.081,563.935Zm-7.281,0a3.265,3.265,0,1,0,3.266-3.266A3.269,3.269,0,0,0,299.8,563.935Z" transform="translate(-299.048 -559.917)" fill="#fff"/>
      </g>
      <g id="Group_504" data-name="Group 504" transform="translate(3.829 7.611)">
        <rect id="Rectangle_83" data-name="Rectangle 83" width="0.377" height="9.542" fill="#fff"/>
      </g>
    </g>
    <g id="Group_509" data-name="Group 509" transform="translate(267.399 109.805)">
      <g id="Group_506" data-name="Group 506" transform="translate(0 17.138)">
        <path id="Path_419" data-name="Path 419" d="M312.562,571.822a4.018,4.018,0,1,1-4.018-4.018A4.024,4.024,0,0,1,312.562,571.822Zm-7.284,0a3.265,3.265,0,1,0,3.266-3.266A3.268,3.268,0,0,0,305.278,571.822Z" transform="translate(-304.526 -567.804)" fill="#fff"/>
      </g>
      <g id="Group_507" data-name="Group 507">
        <path id="Path_420" data-name="Path 420" d="M312.562,563.935a4.018,4.018,0,1,1-4.018-4.018A4.024,4.024,0,0,1,312.562,563.935Zm-7.284,0a3.265,3.265,0,1,0,3.266-3.266A3.269,3.269,0,0,0,305.278,563.935Z" transform="translate(-304.526 -559.917)" fill="#fff"/>
      </g>
      <g id="Group_508" data-name="Group 508" transform="translate(3.829 7.611)">
        <rect id="Rectangle_84" data-name="Rectangle 84" width="0.377" height="9.542" fill="#fff"/>
      </g>
    </g>
    <g id="Group_513" data-name="Group 513" transform="translate(279.303 109.805)">
      <g id="Group_510" data-name="Group 510" transform="translate(0 17.138)">
        <path id="Path_421" data-name="Path 421" d="M318.04,571.822a4.018,4.018,0,1,1-4.018-4.018A4.024,4.024,0,0,1,318.04,571.822Zm-7.282,0a3.264,3.264,0,1,0,3.264-3.266A3.267,3.267,0,0,0,310.758,571.822Z" transform="translate(-310.004 -567.804)" fill="#fff"/>
      </g>
      <g id="Group_511" data-name="Group 511">
        <path id="Path_422" data-name="Path 422" d="M318.04,563.935a4.018,4.018,0,1,1-4.018-4.018A4.024,4.024,0,0,1,318.04,563.935Zm-7.282,0a3.264,3.264,0,1,0,3.264-3.266A3.267,3.267,0,0,0,310.758,563.935Z" transform="translate(-310.004 -559.917)" fill="#fff"/>
      </g>
      <g id="Group_512" data-name="Group 512" transform="translate(3.829 7.611)">
        <rect id="Rectangle_85" data-name="Rectangle 85" width="0.377" height="9.542" fill="#fff"/>
      </g>
    </g>
    <g id="Group_517" data-name="Group 517" transform="translate(291.206 109.805)">
      <g id="Group_514" data-name="Group 514" transform="translate(0 17.138)">
        <path id="Path_423" data-name="Path 423" d="M323.518,571.822A4.018,4.018,0,1,1,319.5,567.8,4.024,4.024,0,0,1,323.518,571.822Zm-7.281,0a3.264,3.264,0,1,0,3.264-3.266A3.268,3.268,0,0,0,316.236,571.822Z" transform="translate(-315.482 -567.804)" fill="#fff"/>
      </g>
      <g id="Group_515" data-name="Group 515">
        <path id="Path_424" data-name="Path 424" d="M323.518,563.935a4.018,4.018,0,1,1-4.018-4.018A4.024,4.024,0,0,1,323.518,563.935Zm-7.281,0a3.264,3.264,0,1,0,3.264-3.266A3.268,3.268,0,0,0,316.236,563.935Z" transform="translate(-315.482 -559.917)" fill="#fff"/>
      </g>
      <g id="Group_516" data-name="Group 516" transform="translate(3.83 7.611)">
        <rect id="Rectangle_86" data-name="Rectangle 86" width="0.377" height="9.542" fill="#fff"/>
      </g>
    </g>
    <g id="Group_521" data-name="Group 521" transform="translate(303.109 75.34)">
      <g id="Group_518" data-name="Group 518" transform="translate(0 51.603)">
        <path id="Path_425" data-name="Path 425" d="M329,571.822a4.018,4.018,0,1,1-4.018-4.018A4.022,4.022,0,0,1,329,571.822Zm-7.282,0a3.264,3.264,0,1,0,3.264-3.266A3.268,3.268,0,0,0,321.714,571.822Z" transform="translate(-320.96 -567.804)" fill="#fff"/>
      </g>
      <g id="Group_519" data-name="Group 519">
        <path id="Path_426" data-name="Path 426" d="M329,548.074a4.018,4.018,0,1,1-4.018-4.018A4.021,4.021,0,0,1,329,548.074Zm-7.282,0a3.264,3.264,0,1,0,3.264-3.264A3.268,3.268,0,0,0,321.714,548.074Z" transform="translate(-320.96 -544.056)" fill="#fff"/>
      </g>
      <g id="Group_520" data-name="Group 520" transform="translate(3.832 7.284)">
        <rect id="Rectangle_87" data-name="Rectangle 87" width="0.377" height="44.336" fill="#fff"/>
      </g>
    </g>
    <g id="Group_525" data-name="Group 525" transform="translate(315.013 109.805)">
      <g id="Group_522" data-name="Group 522" transform="translate(0 17.138)">
        <path id="Path_427" data-name="Path 427" d="M334.474,571.822a4.018,4.018,0,1,1-4.018-4.018A4.022,4.022,0,0,1,334.474,571.822Zm-7.281,0a3.265,3.265,0,1,0,3.264-3.266A3.268,3.268,0,0,0,327.192,571.822Z" transform="translate(-326.438 -567.804)" fill="#fff"/>
      </g>
      <g id="Group_523" data-name="Group 523">
        <path id="Path_428" data-name="Path 428" d="M334.474,563.935a4.018,4.018,0,1,1-4.018-4.018A4.022,4.022,0,0,1,334.474,563.935Zm-7.281,0a3.265,3.265,0,1,0,3.264-3.266A3.268,3.268,0,0,0,327.192,563.935Z" transform="translate(-326.438 -559.917)" fill="#fff"/>
      </g>
      <g id="Group_524" data-name="Group 524" transform="translate(3.83 7.611)">
        <rect id="Rectangle_88" data-name="Rectangle 88" width="0.377" height="9.542" fill="#fff"/>
      </g>
    </g>
    <g id="Group_527" data-name="Group 527" transform="translate(201.842 234.524)">
      <g id="Group_526" data-name="Group 526">
        <path id="Path_429" data-name="Path 429" d="M275.714,618.332a3.285,3.285,0,0,1,2.618,0h1.358a4,4,0,0,0-5.335,0Z" transform="translate(-274.356 -617.313)" fill="#fff"/>
      </g>
    </g>
    <g id="Group_532" data-name="Group 532" transform="translate(172.639 28.313)">
      <g id="Group_528" data-name="Group 528" transform="translate(31.158 38.035)">
        <path id="Path_430" data-name="Path 430" d="M283.292,543.936a4.018,4.018,0,1,1-4.018-4.018A4.022,4.022,0,0,1,283.292,543.936Zm-7.284,0a3.265,3.265,0,1,0,3.266-3.264A3.267,3.267,0,0,0,276.008,543.936Z" transform="translate(-275.256 -539.918)" fill="#fff"/>
      </g>
      <g id="Group_529" data-name="Group 529">
        <path id="Path_431" data-name="Path 431" d="M268.953,526.432a4.018,4.018,0,1,1-4.018-4.018A4.022,4.022,0,0,1,268.953,526.432Zm-7.281,0a3.264,3.264,0,1,0,3.264-3.264A3.268,3.268,0,0,0,261.671,526.432Z" transform="translate(-260.917 -522.414)" fill="#fff"/>
      </g>
      <g id="Group_530" data-name="Group 530" transform="translate(34.987 4.191)">
        <rect id="Rectangle_89" data-name="Rectangle 89" width="0.377" height="34.597" fill="#fff"/>
      </g>
      <g id="Group_531" data-name="Group 531" transform="translate(7.284 3.813)">
        <rect id="Rectangle_90" data-name="Rectangle 90" width="28.081" height="0.377" fill="#fff"/>
      </g>
    </g>
    <g id="Group_537" data-name="Group 537" transform="translate(182.076 18.876)">
      <g id="Group_533" data-name="Group 533" transform="translate(31.158 38.035)">
        <path id="Path_432" data-name="Path 432" d="M287.635,539.593a4.018,4.018,0,1,1-4.018-4.018A4.023,4.023,0,0,1,287.635,539.593Zm-7.282,0a3.264,3.264,0,1,0,3.264-3.266A3.268,3.268,0,0,0,280.353,539.593Z" transform="translate(-279.599 -535.575)" fill="#fff"/>
      </g>
      <g id="Group_534" data-name="Group 534">
        <path id="Path_433" data-name="Path 433" d="M273.3,522.089a4.018,4.018,0,1,1-4.016-4.018A4.02,4.02,0,0,1,273.3,522.089Zm-7.282,0a3.265,3.265,0,1,0,3.266-3.264A3.269,3.269,0,0,0,266.014,522.089Z" transform="translate(-265.26 -518.071)" fill="#fff"/>
      </g>
      <g id="Group_535" data-name="Group 535" transform="translate(34.988 4.19)">
        <rect id="Rectangle_91" data-name="Rectangle 91" width="0.377" height="34.597" fill="#fff"/>
      </g>
      <g id="Group_536" data-name="Group 536" transform="translate(7.285 3.812)">
        <rect id="Rectangle_92" data-name="Rectangle 92" width="28.081" height="0.377" fill="#fff"/>
      </g>
    </g>
    <g id="Group_542" data-name="Group 542" transform="translate(191.516 9.437)">
      <g id="Group_538" data-name="Group 538" transform="translate(31.158 38.035)">
        <path id="Path_434" data-name="Path 434" d="M291.976,535.249a4.017,4.017,0,1,1-4.016-4.018A4.021,4.021,0,0,1,291.976,535.249Zm-7.282,0a3.265,3.265,0,1,0,3.266-3.264A3.269,3.269,0,0,0,284.695,535.249Z" transform="translate(-283.943 -531.231)" fill="#fff"/>
      </g>
      <g id="Group_539" data-name="Group 539">
        <path id="Path_435" data-name="Path 435" d="M277.64,517.747a4.018,4.018,0,1,1-4.018-4.02A4.024,4.024,0,0,1,277.64,517.747Zm-7.282,0a3.264,3.264,0,1,0,3.264-3.266A3.266,3.266,0,0,0,270.358,517.747Z" transform="translate(-269.604 -513.727)" fill="#fff"/>
      </g>
      <g id="Group_540" data-name="Group 540" transform="translate(34.987 4.191)">
        <rect id="Rectangle_93" data-name="Rectangle 93" width="0.377" height="34.597" fill="#fff"/>
      </g>
      <g id="Group_541" data-name="Group 541" transform="translate(7.284 3.813)">
        <rect id="Rectangle_94" data-name="Rectangle 94" width="28.081" height="0.377" fill="#fff"/>
      </g>
    </g>
    <g id="Group_547" data-name="Group 547" transform="translate(200.953)">
      <g id="Group_543" data-name="Group 543" transform="translate(31.158 38.035)">
        <path id="Path_436" data-name="Path 436" d="M296.322,530.906a4.018,4.018,0,1,1-4.018-4.018A4.024,4.024,0,0,1,296.322,530.906Zm-7.282,0a3.264,3.264,0,1,0,3.264-3.266A3.268,3.268,0,0,0,289.04,530.906Z" transform="translate(-288.286 -526.888)" fill="#fff"/>
      </g>
      <g id="Group_544" data-name="Group 544">
        <path id="Path_437" data-name="Path 437" d="M281.983,513.4a4.018,4.018,0,1,1-4.018-4.018A4.021,4.021,0,0,1,281.983,513.4Zm-7.282,0a3.265,3.265,0,1,0,3.264-3.264A3.267,3.267,0,0,0,274.7,513.4Z" transform="translate(-273.947 -509.384)" fill="#fff"/>
      </g>
      <g id="Group_545" data-name="Group 545" transform="translate(34.987 4.191)">
        <rect id="Rectangle_95" data-name="Rectangle 95" width="0.377" height="34.597" fill="#fff"/>
      </g>
      <g id="Group_546" data-name="Group 546" transform="translate(7.285 3.812)">
        <rect id="Rectangle_96" data-name="Rectangle 96" width="28.081" height="0.377" fill="#fff"/>
      </g>
    </g>
    <g id="Group_553" data-name="Group 553" transform="translate(14.801 49.232)">
      <g id="Group_548" data-name="Group 548" transform="translate(0 4.315)">
        <path id="Path_438" data-name="Path 438" d="M192.3,542.063a4.018,4.018,0,1,1,4.018-4.018A4.024,4.024,0,0,1,192.3,542.063Zm0-7.284a3.265,3.265,0,1,0,3.264,3.266A3.269,3.269,0,0,0,192.3,534.779Z" transform="translate(-188.279 -534.027)" fill="#fff"/>
      </g>
      <g id="Group_549" data-name="Group 549" transform="translate(46.816)">
        <path id="Path_439" data-name="Path 439" d="M213.842,540.074a4.017,4.017,0,1,1,4.02-4.016A4.022,4.022,0,0,1,213.842,540.074Zm0-7.281a3.265,3.265,0,1,0,3.266,3.266A3.268,3.268,0,0,0,213.842,532.793Z" transform="translate(-209.824 -532.041)" fill="#fff"/>
      </g>
      <g id="Group_550" data-name="Group 550" transform="translate(8.021 8.144)">
        <rect id="Rectangle_97" data-name="Rectangle 97" width="9.542" height="0.377" fill="#fff"/>
      </g>
      <g id="Group_551" data-name="Group 551" transform="translate(21.647 3.904)">
        <rect id="Rectangle_98" data-name="Rectangle 98" width="25.503" height="0.377" fill="#fff"/>
      </g>
      <g id="Group_552" data-name="Group 552" transform="translate(17.297 3.904)">
        <rect id="Rectangle_99" data-name="Rectangle 99" width="6.152" height="0.377" transform="translate(0 4.35) rotate(-45)" fill="#fff"/>
      </g>
    </g>
    <g id="Group_556" data-name="Group 556" transform="translate(91.567 223.955)">
      <g id="Group_554" data-name="Group 554" transform="translate(3.823)">
        <path id="Path_440" data-name="Path 440" d="M226.541,613.624a4.018,4.018,0,1,1,0,5.682A4.022,4.022,0,0,1,226.541,613.624Zm5.15,5.15a3.265,3.265,0,1,0-4.617,0A3.268,3.268,0,0,0,231.691,618.774Z" transform="translate(-225.366 -612.449)" fill="#fff"/>
      </g>
      <g id="Group_555" data-name="Group 555" transform="translate(0 6.713)">
        <path id="Path_441" data-name="Path 441" d="M224.14,620.414l4.609-4.61-.266-.266-4.876,4.876Z" transform="translate(-223.607 -615.538)" fill="#fff"/>
      </g>
    </g>
    <g id="Group_558" data-name="Group 558" transform="translate(106.06 231.665)">
      <g id="Group_557" data-name="Group 557">
        <path id="Path_442" data-name="Path 442" d="M231.029,619.875a3.252,3.252,0,0,1,6.5,0h.754a3.98,3.98,0,0,0-1.163-2.7,4,4,0,0,0-6.843,2.7Z" transform="translate(-230.277 -615.997)" fill="#fff"/>
      </g>
    </g>
    <g id="Group_562" data-name="Group 562" transform="translate(224.87 189.922)">
      <g id="Group_559" data-name="Group 559">
        <path id="Path_443" data-name="Path 443" d="M292.99,600.8a4.018,4.018,0,1,1-4.018-4.018A4.022,4.022,0,0,1,292.99,600.8Zm-7.282,0a3.264,3.264,0,1,0,3.264-3.264A3.267,3.267,0,0,0,285.708,600.8Z" transform="translate(-284.954 -596.787)" fill="#fff"/>
      </g>
      <g id="Group_560" data-name="Group 560" transform="translate(32.398 32.477)">
        <rect id="Rectangle_100" data-name="Rectangle 100" width="0.377" height="13.144" fill="#fff"/>
      </g>
      <g id="Group_561" data-name="Group 561" transform="translate(6.644 6.613)">
        <rect id="Rectangle_101" data-name="Rectangle 101" width="0.377" height="36.57" transform="translate(0 0.266) rotate(-45)" fill="#fff"/>
      </g>
    </g>
    <g id="Group_566" data-name="Group 566" transform="translate(238.814 189.922)">
      <g id="Group_563" data-name="Group 563">
        <path id="Path_444" data-name="Path 444" d="M299.407,600.8a4.018,4.018,0,1,1-4.018-4.018A4.021,4.021,0,0,1,299.407,600.8Zm-7.282,0a3.264,3.264,0,1,0,3.264-3.264A3.269,3.269,0,0,0,292.125,600.8Z" transform="translate(-291.371 -596.787)" fill="#fff"/>
      </g>
      <g id="Group_564" data-name="Group 564" transform="translate(32.399 32.477)">
        <rect id="Rectangle_102" data-name="Rectangle 102" width="0.377" height="13.144" fill="#fff"/>
      </g>
      <g id="Group_565" data-name="Group 565" transform="translate(6.644 6.613)">
        <rect id="Rectangle_103" data-name="Rectangle 103" width="0.377" height="36.57" transform="translate(0 0.266) rotate(-45)" fill="#fff"/>
      </g>
    </g>
    <g id="Group_570" data-name="Group 570" transform="translate(252.758 189.922)">
      <g id="Group_567" data-name="Group 567">
        <path id="Path_445" data-name="Path 445" d="M305.824,600.8a4.018,4.018,0,1,1-4.018-4.018A4.021,4.021,0,0,1,305.824,600.8Zm-7.281,0a3.265,3.265,0,1,0,3.264-3.264A3.268,3.268,0,0,0,298.542,600.8Z" transform="translate(-297.788 -596.787)" fill="#fff"/>
      </g>
      <g id="Group_568" data-name="Group 568" transform="translate(32.399 32.477)">
        <rect id="Rectangle_104" data-name="Rectangle 104" width="0.377" height="13.144" fill="#fff"/>
      </g>
      <g id="Group_569" data-name="Group 569" transform="translate(6.645 6.613)">
        <rect id="Rectangle_105" data-name="Rectangle 105" width="0.377" height="36.57" transform="translate(0 0.266) rotate(-45)" fill="#fff"/>
      </g>
    </g>
    <g id="Group_575" data-name="Group 575" transform="translate(238.343 147.391)">
      <g id="Group_571" data-name="Group 571">
        <path id="Path_446" data-name="Path 446" d="M291.154,581.232a4.018,4.018,0,1,1,4.018,4.018A4.024,4.024,0,0,1,291.154,581.232Zm7.284,0a3.265,3.265,0,1,0-3.266,3.266A3.269,3.269,0,0,0,298.438,581.232Z" transform="translate(-291.154 -577.214)" fill="#fff"/>
      </g>
      <g id="Group_572" data-name="Group 572" transform="translate(28.563 41.999)">
        <path id="Path_447" data-name="Path 447" d="M304.3,600.56a4.018,4.018,0,1,1,4.018,4.018A4.022,4.022,0,0,1,304.3,600.56Zm7.284,0a3.265,3.265,0,1,0-3.266,3.264A3.269,3.269,0,0,0,311.583,600.56Z" transform="translate(-304.299 -596.542)" fill="#fff"/>
      </g>
      <g id="Group_573" data-name="Group 573" transform="translate(3.83 8.021)">
        <rect id="Rectangle_106" data-name="Rectangle 106" width="0.377" height="9.542" fill="#fff"/>
      </g>
      <g id="Group_574" data-name="Group 574" transform="translate(3.83 17.296)">
        <rect id="Rectangle_107" data-name="Rectangle 107" width="0.377" height="36.57" transform="translate(0 0.266) rotate(-45)" fill="#fff"/>
      </g>
    </g>
    <g id="Group_580" data-name="Group 580" transform="translate(253.988 147.391)">
      <g id="Group_576" data-name="Group 576">
        <path id="Path_448" data-name="Path 448" d="M298.354,581.232a4.018,4.018,0,1,1,4.018,4.018A4.024,4.024,0,0,1,298.354,581.232Zm7.281,0a3.264,3.264,0,1,0-3.264,3.266A3.267,3.267,0,0,0,305.635,581.232Z" transform="translate(-298.354 -577.214)" fill="#fff"/>
      </g>
      <g id="Group_577" data-name="Group 577" transform="translate(28.563 41.999)">
        <path id="Path_449" data-name="Path 449" d="M311.5,600.56a4.018,4.018,0,1,1,4.018,4.018A4.022,4.022,0,0,1,311.5,600.56Zm7.284,0a3.265,3.265,0,1,0-3.266,3.264A3.269,3.269,0,0,0,318.783,600.56Z" transform="translate(-311.499 -596.542)" fill="#fff"/>
      </g>
      <g id="Group_578" data-name="Group 578" transform="translate(3.83 8.021)">
        <rect id="Rectangle_108" data-name="Rectangle 108" width="0.377" height="9.542" fill="#fff"/>
      </g>
      <g id="Group_579" data-name="Group 579" transform="translate(3.83 17.296)">
        <rect id="Rectangle_109" data-name="Rectangle 109" width="0.377" height="36.57" transform="matrix(0.707, -0.707, 0.707, 0.707, 0, 0.266)" fill="#fff"/>
      </g>
    </g>
    <g id="Group_585" data-name="Group 585" transform="translate(269.633 147.391)">
      <g id="Group_581" data-name="Group 581">
        <path id="Path_450" data-name="Path 450" d="M305.554,581.232a4.018,4.018,0,1,1,4.018,4.018A4.024,4.024,0,0,1,305.554,581.232Zm7.282,0a3.264,3.264,0,1,0-3.264,3.266A3.268,3.268,0,0,0,312.836,581.232Z" transform="translate(-305.554 -577.214)" fill="#fff"/>
      </g>
      <g id="Group_582" data-name="Group 582" transform="translate(28.563 41.999)">
        <path id="Path_451" data-name="Path 451" d="M318.7,600.56a4.018,4.018,0,1,1,4.018,4.018A4.022,4.022,0,0,1,318.7,600.56Zm7.282,0a3.264,3.264,0,1,0-3.264,3.264A3.267,3.267,0,0,0,325.98,600.56Z" transform="translate(-318.699 -596.542)" fill="#fff"/>
      </g>
      <g id="Group_583" data-name="Group 583" transform="translate(3.83 8.021)">
        <rect id="Rectangle_110" data-name="Rectangle 110" width="0.377" height="9.542" fill="#fff"/>
      </g>
      <g id="Group_584" data-name="Group 584" transform="translate(3.83 17.296)">
        <rect id="Rectangle_111" data-name="Rectangle 111" width="0.377" height="36.57" transform="translate(0 0.266) rotate(-45)" fill="#fff"/>
      </g>
    </g>
    <g id="Group_590" data-name="Group 590" transform="translate(0 144.62)">
      <g id="Group_586" data-name="Group 586" transform="translate(4.088 0)">
        <rect id="Rectangle_112" data-name="Rectangle 112" width="0.377" height="92.14" transform="translate(0 0.266) rotate(-45)" fill="#fff"/>
      </g>
      <g id="Group_587" data-name="Group 587" transform="translate(105.545 65.042)">
        <path id="Path_452" data-name="Path 452" d="M256.187,631.753l-25.881-25.881-.266.266,25.615,25.615Z" transform="translate(-230.04 -605.872)" fill="#fff"/>
      </g>
      <g id="Group_588" data-name="Group 588" transform="translate(0 0)">
        <rect id="Rectangle_113" data-name="Rectangle 113" width="4.354" height="0.377" fill="#fff"/>
      </g>
      <g id="Group_589" data-name="Group 589" transform="translate(69.241 65.042)">
        <rect id="Rectangle_114" data-name="Rectangle 114" width="36.57" height="0.377" fill="#fff"/>
      </g>
    </g>
    <g id="Group_596" data-name="Group 596" transform="translate(0 134.19)">
      <g id="Group_591" data-name="Group 591" transform="translate(135.007 94.485)">
        <path id="Path_453" data-name="Path 453" d="M244.789,621.489h1.271a3.187,3.187,0,0,1-.754-.545,3.264,3.264,0,1,1,4.618,0,3.2,3.2,0,0,1-.756.545h1.273l.015-.011a4.018,4.018,0,1,0-5.682,0Z" transform="translate(-243.598 -614.621)" fill="#fff"/>
      </g>
      <g id="Group_592" data-name="Group 592" transform="translate(4.088 0)">
        <rect id="Rectangle_115" data-name="Rectangle 115" width="0.377" height="92.14" transform="translate(0 0.266) rotate(-45)" fill="#fff"/>
      </g>
      <g id="Group_593" data-name="Group 593" transform="translate(105.545 65.043)">
        <rect id="Rectangle_116" data-name="Rectangle 116" width="0.377" height="43.829" transform="translate(0 0.266) rotate(-45)" fill="#fff"/>
      </g>
      <g id="Group_594" data-name="Group 594" transform="translate(0 0)">
        <rect id="Rectangle_117" data-name="Rectangle 117" width="4.354" height="0.377" fill="#fff"/>
      </g>
      <g id="Group_595" data-name="Group 595" transform="translate(69.241 65.043)">
        <rect id="Rectangle_118" data-name="Rectangle 118" width="36.57" height="0.377" fill="#fff"/>
      </g>
    </g>
    <g id="Group_602" data-name="Group 602" transform="translate(0 123.76)">
      <g id="Group_597" data-name="Group 597" transform="translate(135.007 94.485)">
        <path id="Path_454" data-name="Path 454" d="M250.456,611a4.018,4.018,0,1,1-5.682,0A4.022,4.022,0,0,1,250.456,611Zm-5.15,5.148a3.264,3.264,0,1,0,0-4.615A3.268,3.268,0,0,0,245.306,616.144Z" transform="translate(-243.598 -609.821)" fill="#fff"/>
      </g>
      <g id="Group_598" data-name="Group 598" transform="translate(4.088 0)">
        <rect id="Rectangle_119" data-name="Rectangle 119" width="0.377" height="92.14" transform="translate(0 0.266) rotate(-45)" fill="#fff"/>
      </g>
      <g id="Group_599" data-name="Group 599" transform="translate(105.545 65.043)">
        <rect id="Rectangle_120" data-name="Rectangle 120" width="0.377" height="43.829" transform="translate(0 0.266) rotate(-45)" fill="#fff"/>
      </g>
      <g id="Group_600" data-name="Group 600" transform="translate(0 0)">
        <rect id="Rectangle_121" data-name="Rectangle 121" width="4.354" height="0.377" fill="#fff"/>
      </g>
      <g id="Group_601" data-name="Group 601" transform="translate(69.241 65.043)">
        <rect id="Rectangle_122" data-name="Rectangle 122" width="36.57" height="0.377" fill="#fff"/>
      </g>
    </g>
    <g id="Group_608" data-name="Group 608" transform="translate(0 99.385)">
      <g id="Group_603" data-name="Group 603" transform="translate(135.007 94.485)">
        <path id="Path_455" data-name="Path 455" d="M250.456,599.779a4.017,4.017,0,1,1-5.682,0A4.02,4.02,0,0,1,250.456,599.779Zm-5.15,5.148a3.264,3.264,0,1,0,0-4.617A3.268,3.268,0,0,0,245.306,604.927Z" transform="translate(-243.598 -598.604)" fill="#fff"/>
      </g>
      <g id="Group_604" data-name="Group 604" transform="translate(4.088 0)">
        <rect id="Rectangle_123" data-name="Rectangle 123" width="0.377" height="92.14" transform="translate(0 0.266) rotate(-45)" fill="#fff"/>
      </g>
      <g id="Group_605" data-name="Group 605" transform="translate(105.545 65.042)">
        <rect id="Rectangle_124" data-name="Rectangle 124" width="0.377" height="43.829" transform="translate(0 0.266) rotate(-45)" fill="#fff"/>
      </g>
      <g id="Group_606" data-name="Group 606">
        <rect id="Rectangle_125" data-name="Rectangle 125" width="4.354" height="0.377" fill="#fff"/>
      </g>
      <g id="Group_607" data-name="Group 607" transform="translate(69.241 65.043)">
        <rect id="Rectangle_126" data-name="Rectangle 126" width="36.57" height="0.377" fill="#fff"/>
      </g>
    </g>
    <g id="Group_614" data-name="Group 614" transform="translate(0 111.969)">
      <g id="Group_609" data-name="Group 609" transform="translate(135.007 94.485)">
        <path id="Path_456" data-name="Path 456" d="M250.456,605.57a4.017,4.017,0,1,1-5.682,0A4.02,4.02,0,0,1,250.456,605.57Zm-5.15,5.148a3.264,3.264,0,1,0,0-4.615A3.268,3.268,0,0,0,245.306,610.718Z" transform="translate(-243.598 -604.395)" fill="#fff"/>
      </g>
      <g id="Group_610" data-name="Group 610" transform="translate(4.088 0)">
        <rect id="Rectangle_127" data-name="Rectangle 127" width="0.377" height="92.14" transform="translate(0 0.266) rotate(-45)" fill="#fff"/>
      </g>
      <g id="Group_611" data-name="Group 611" transform="translate(105.545 65.043)">
        <rect id="Rectangle_128" data-name="Rectangle 128" width="0.377" height="43.829" transform="translate(0 0.266) rotate(-45)" fill="#fff"/>
      </g>
      <g id="Group_612" data-name="Group 612">
        <rect id="Rectangle_129" data-name="Rectangle 129" width="4.354" height="0.377" fill="#fff"/>
      </g>
      <g id="Group_613" data-name="Group 613" transform="translate(69.241 65.043)">
        <rect id="Rectangle_130" data-name="Rectangle 130" width="36.57" height="0.377" fill="#fff"/>
      </g>
    </g>
    <g id="Group_621" data-name="Group 621" transform="translate(402.945 200.711)">
      <g id="Group_615" data-name="Group 615" transform="translate(28.17 10.061)">
        <path id="Path_457" data-name="Path 457" d="M383.887,606.382a4.018,4.018,0,1,1-4.018,4.018A4.021,4.021,0,0,1,383.887,606.382Zm0,7.281a3.265,3.265,0,1,0-3.264-3.264A3.268,3.268,0,0,0,383.887,613.663Z" transform="translate(-379.869 -606.382)" fill="#fff"/>
      </g>
      <g id="Group_616" data-name="Group 616" transform="translate(0 19.791)">
        <path id="Path_458" data-name="Path 458" d="M370.923,610.86a4.018,4.018,0,1,1-4.018,4.018A4.022,4.022,0,0,1,370.923,610.86Zm0,7.281a3.265,3.265,0,1,0-3.266-3.264A3.268,3.268,0,0,0,370.923,618.141Z" transform="translate(-366.905 -610.86)" fill="#fff"/>
      </g>
      <g id="Group_617" data-name="Group 617" transform="translate(3.954 13.889)">
        <rect id="Rectangle_131" data-name="Rectangle 131" width="24.232" height="0.377" fill="#fff"/>
      </g>
      <g id="Group_618" data-name="Group 618" transform="translate(3.816 13.89)">
        <rect id="Rectangle_132" data-name="Rectangle 132" width="0.377" height="6.152" fill="#fff"/>
      </g>
      <g id="Group_619" data-name="Group 619">
        <path id="Path_459" data-name="Path 459" d="M370.923,609.787a4.018,4.018,0,1,1,4.018-4.018A4.021,4.021,0,0,1,370.923,609.787Zm0-7.282a3.264,3.264,0,1,0,3.264,3.264A3.269,3.269,0,0,0,370.923,602.506Z" transform="translate(-366.905 -601.752)" fill="#fff"/>
      </g>
      <g id="Group_620" data-name="Group 620" transform="translate(3.816 7.782)">
        <rect id="Rectangle_133" data-name="Rectangle 133" width="0.377" height="6.152" fill="#fff"/>
      </g>
    </g>
    <g id="Group_624" data-name="Group 624" transform="translate(214.864 203.138)">
      <g id="Group_622" data-name="Group 622">
        <path id="Path_460" data-name="Path 460" d="M280.349,606.887a4.018,4.018,0,1,1,4.018,4.018A4.024,4.024,0,0,1,280.349,606.887Zm7.284,0a3.265,3.265,0,1,0-3.266,3.266A3.269,3.269,0,0,0,287.633,606.887Z" transform="translate(-280.349 -602.869)" fill="#fff"/>
      </g>
      <g id="Group_623" data-name="Group 623" transform="translate(3.83 7.901)">
        <rect id="Rectangle_134" data-name="Rectangle 134" width="0.377" height="24.505" fill="#fff"/>
      </g>
    </g>
    <g id="Group_629" data-name="Group 629" transform="translate(244.008 99.79)">
      <g id="Group_625" data-name="Group 625" transform="translate(55.417)">
        <path id="Path_461" data-name="Path 461" d="M323.282,555.308a4.018,4.018,0,1,1-4.018,4.018A4.022,4.022,0,0,1,323.282,555.308Zm0,7.282a3.264,3.264,0,1,0-3.264-3.264A3.269,3.269,0,0,0,323.282,562.59Z" transform="translate(-319.264 -555.308)" fill="#fff"/>
      </g>
      <g id="Group_626" data-name="Group 626" transform="translate(0 9.731)">
        <path id="Path_462" data-name="Path 462" d="M297.779,559.786a4.018,4.018,0,1,1-4.018,4.018A4.022,4.022,0,0,1,297.779,559.786Zm0,7.282a3.264,3.264,0,1,0-3.264-3.264A3.269,3.269,0,0,0,297.779,567.068Z" transform="translate(-293.761 -559.786)" fill="#fff"/>
      </g>
      <g id="Group_627" data-name="Group 627" transform="translate(4.195 3.83)">
        <rect id="Rectangle_135" data-name="Rectangle 135" width="51.238" height="0.377" fill="#fff"/>
      </g>
      <g id="Group_628" data-name="Group 628" transform="translate(3.815 3.83)">
        <rect id="Rectangle_136" data-name="Rectangle 136" width="0.377" height="6.152" fill="#fff"/>
      </g>
    </g>
    <g id="Group_634" data-name="Group 634" transform="translate(319.168 195.156)">
      <g id="Group_630" data-name="Group 630" transform="translate(0 9.731)">
        <path id="Path_463" data-name="Path 463" d="M332.368,611.71a4.018,4.018,0,1,1,4.02-4.018A4.024,4.024,0,0,1,332.368,611.71Zm0-7.281a3.264,3.264,0,1,0,3.266,3.264A3.267,3.267,0,0,0,332.368,604.428Z" transform="translate(-328.35 -603.674)" fill="#fff"/>
      </g>
      <g id="Group_631" data-name="Group 631" transform="translate(55.417)">
        <path id="Path_464" data-name="Path 464" d="M357.871,607.232a4.018,4.018,0,1,1,4.018-4.018A4.024,4.024,0,0,1,357.871,607.232Zm0-7.284a3.265,3.265,0,1,0,3.266,3.266A3.268,3.268,0,0,0,357.871,599.948Z" transform="translate(-353.853 -599.196)" fill="#fff"/>
      </g>
      <g id="Group_632" data-name="Group 632" transform="translate(8.021 13.56)">
        <rect id="Rectangle_137" data-name="Rectangle 137" width="51.238" height="0.377" fill="#fff"/>
      </g>
      <g id="Group_633" data-name="Group 633" transform="translate(59.263 7.784)">
        <rect id="Rectangle_138" data-name="Rectangle 138" width="0.377" height="6.152" fill="#fff"/>
      </g>
    </g>
    <g id="Group_639" data-name="Group 639" transform="translate(319.168 217.603)">
      <g id="Group_635" data-name="Group 635" transform="translate(0 9.731)">
        <path id="Path_465" data-name="Path 465" d="M332.368,622.04a4.018,4.018,0,1,1,4.02-4.018A4.024,4.024,0,0,1,332.368,622.04Zm0-7.281a3.264,3.264,0,1,0,3.266,3.264A3.268,3.268,0,0,0,332.368,614.758Z" transform="translate(-328.35 -614.004)" fill="#fff"/>
      </g>
      <g id="Group_636" data-name="Group 636" transform="translate(55.417)">
        <path id="Path_466" data-name="Path 466" d="M357.871,617.562a4.018,4.018,0,1,1,4.018-4.018A4.022,4.022,0,0,1,357.871,617.562Zm0-7.282a3.264,3.264,0,1,0,3.266,3.264A3.268,3.268,0,0,0,357.871,610.28Z" transform="translate(-353.853 -609.526)" fill="#fff"/>
      </g>
      <g id="Group_637" data-name="Group 637" transform="translate(8.021 13.56)">
        <rect id="Rectangle_139" data-name="Rectangle 139" width="51.238" height="0.377" fill="#fff"/>
      </g>
      <g id="Group_638" data-name="Group 638" transform="translate(59.263 7.784)">
        <rect id="Rectangle_140" data-name="Rectangle 140" width="0.377" height="6.152" fill="#fff"/>
      </g>
    </g>
    <g id="Group_644" data-name="Group 644" transform="translate(376.501 74.004)">
      <g id="Group_640" data-name="Group 640" transform="translate(0 9.731)">
        <path id="Path_467" data-name="Path 467" d="M358.753,555.955a4.018,4.018,0,1,1,4.018-4.018A4.022,4.022,0,0,1,358.753,555.955Zm0-7.282a3.264,3.264,0,1,0,3.264,3.264A3.267,3.267,0,0,0,358.753,548.673Z" transform="translate(-354.735 -547.919)" fill="#fff"/>
      </g>
      <g id="Group_641" data-name="Group 641" transform="translate(55.417)">
        <path id="Path_468" data-name="Path 468" d="M384.256,551.477a4.018,4.018,0,1,1,4.018-4.018A4.022,4.022,0,0,1,384.256,551.477Zm0-7.281a3.264,3.264,0,1,0,3.264,3.264A3.268,3.268,0,0,0,384.256,544.2Z" transform="translate(-380.238 -543.441)" fill="#fff"/>
      </g>
      <g id="Group_642" data-name="Group 642" transform="translate(8.02 13.56)">
        <rect id="Rectangle_141" data-name="Rectangle 141" width="51.238" height="0.377" fill="#fff"/>
      </g>
      <g id="Group_643" data-name="Group 643" transform="translate(59.261 7.784)">
        <rect id="Rectangle_142" data-name="Rectangle 142" width="0.377" height="6.152" fill="#fff"/>
      </g>
    </g>
    <g id="Group_648" data-name="Group 648" transform="translate(392.767 177.682)">
      <g id="Group_645" data-name="Group 645">
        <path id="Path_469" data-name="Path 469" d="M362.221,595.172a4.018,4.018,0,1,1,4.018,4.018A4.022,4.022,0,0,1,362.221,595.172Zm7.284,0a3.265,3.265,0,1,0-3.266,3.264A3.269,3.269,0,0,0,369.5,595.172Z" transform="translate(-362.221 -591.154)" fill="#fff"/>
      </g>
      <g id="Group_646" data-name="Group 646" transform="translate(10.052 55.414)">
        <path id="Path_470" data-name="Path 470" d="M367.7,619.1a3.234,3.234,0,0,1,5.687,0h.852a4.015,4.015,0,0,0-7.392,0Z" transform="translate(-366.847 -616.656)" fill="#fff"/>
      </g>
      <g id="Group_647" data-name="Group 647" transform="translate(3.83 8.019)">
        <rect id="Rectangle_143" data-name="Rectangle 143" width="0.377" height="49.843" fill="#fff"/>
      </g>
    </g>
    <g id="Group_651" data-name="Group 651" transform="translate(308.411 147.182)">
      <g id="Group_649" data-name="Group 649">
        <path id="Path_471" data-name="Path 471" d="M327.418,585.153a4.018,4.018,0,1,1,4.018-4.018A4.021,4.021,0,0,1,327.418,585.153Zm0-7.281a3.264,3.264,0,1,0,3.264,3.264A3.268,3.268,0,0,0,327.418,577.872Z" transform="translate(-323.4 -577.118)" fill="#fff"/>
      </g>
      <g id="Group_650" data-name="Group 650" transform="translate(3.848 7.646)">
        <rect id="Rectangle_144" data-name="Rectangle 144" width="0.377" height="80.715" fill="#fff"/>
      </g>
    </g>
    <g id="Group_656" data-name="Group 656" transform="translate(327.344 75.299)">
      <g id="Group_652" data-name="Group 652">
        <path id="Path_472" data-name="Path 472" d="M332.113,548.055a4.018,4.018,0,1,1,4.018,4.018A4.021,4.021,0,0,1,332.113,548.055Zm7.282,0a3.265,3.265,0,1,0-3.264,3.264A3.269,3.269,0,0,0,339.395,548.055Z" transform="translate(-332.113 -544.037)" fill="#fff"/>
      </g>
      <g id="Group_653" data-name="Group 653" transform="translate(180.461 55.417)">
        <path id="Path_473" data-name="Path 473" d="M415.162,573.558a4.018,4.018,0,1,1,4.018,4.018A4.021,4.021,0,0,1,415.162,573.558Zm7.282,0a3.264,3.264,0,1,0-3.264,3.264A3.267,3.267,0,0,0,422.443,573.558Z" transform="translate(-415.162 -569.54)" fill="#fff"/>
      </g>
      <g id="Group_654" data-name="Group 654" transform="translate(3.829 8.02)">
        <rect id="Rectangle_145" data-name="Rectangle 145" width="0.377" height="51.238" fill="#fff"/>
      </g>
      <g id="Group_655" data-name="Group 655" transform="translate(3.826 59.264)">
        <rect id="Rectangle_146" data-name="Rectangle 146" width="177.024" height="0.377" fill="#fff"/>
      </g>
    </g>
    <g id="Group_661" data-name="Group 661" transform="translate(336.479 66.768)">
      <g id="Group_657" data-name="Group 657">
        <path id="Path_474" data-name="Path 474" d="M336.317,544.129a4.018,4.018,0,1,1,4.018,4.018A4.023,4.023,0,0,1,336.317,544.129Zm7.282,0a3.264,3.264,0,1,0-3.264,3.264A3.267,3.267,0,0,0,343.6,544.129Z" transform="translate(-336.317 -540.111)" fill="#fff"/>
      </g>
      <g id="Group_658" data-name="Group 658" transform="translate(180.461 55.417)">
        <path id="Path_475" data-name="Path 475" d="M419.366,569.632a4.018,4.018,0,1,1,4.018,4.018A4.022,4.022,0,0,1,419.366,569.632Zm7.284,0a3.265,3.265,0,1,0-3.266,3.264A3.269,3.269,0,0,0,426.65,569.632Z" transform="translate(-419.366 -565.614)" fill="#fff"/>
      </g>
      <g id="Group_659" data-name="Group 659" transform="translate(3.83 8.019)">
        <rect id="Rectangle_147" data-name="Rectangle 147" width="0.377" height="51.238" fill="#fff"/>
      </g>
      <g id="Group_660" data-name="Group 660" transform="translate(3.827 59.264)">
        <rect id="Rectangle_148" data-name="Rectangle 148" width="177.024" height="0.377" fill="#fff"/>
      </g>
    </g>
    <g id="Group_666" data-name="Group 666" transform="translate(345.617 58.237)">
      <g id="Group_662" data-name="Group 662">
        <path id="Path_476" data-name="Path 476" d="M340.522,540.2a4.018,4.018,0,1,1,4.018,4.018A4.021,4.021,0,0,1,340.522,540.2Zm7.281,0a3.265,3.265,0,1,0-3.264,3.264A3.268,3.268,0,0,0,347.8,540.2Z" transform="translate(-340.522 -536.185)" fill="#fff"/>
      </g>
      <g id="Group_663" data-name="Group 663" transform="translate(180.461 55.417)">
        <path id="Path_477" data-name="Path 477" d="M423.571,565.706a4.018,4.018,0,1,1,4.018,4.018A4.021,4.021,0,0,1,423.571,565.706Zm7.282,0a3.264,3.264,0,1,0-3.264,3.264A3.269,3.269,0,0,0,430.853,565.706Z" transform="translate(-423.571 -561.688)" fill="#fff"/>
      </g>
      <g id="Group_664" data-name="Group 664" transform="translate(3.829 8.019)">
        <rect id="Rectangle_149" data-name="Rectangle 149" width="0.377" height="51.238" fill="#fff"/>
      </g>
      <g id="Group_665" data-name="Group 665" transform="translate(3.826 59.264)">
        <rect id="Rectangle_150" data-name="Rectangle 150" width="177.024" height="0.377" fill="#fff"/>
      </g>
    </g>
    <g id="Group_671" data-name="Group 671" transform="translate(354.752 49.704)">
      <g id="Group_667" data-name="Group 667">
        <path id="Path_478" data-name="Path 478" d="M344.726,536.278a4.018,4.018,0,1,1,4.018,4.018A4.024,4.024,0,0,1,344.726,536.278Zm7.281,0a3.264,3.264,0,1,0-3.264,3.264A3.267,3.267,0,0,0,352.007,536.278Z" transform="translate(-344.726 -532.258)" fill="#fff"/>
      </g>
      <g id="Group_668" data-name="Group 668" transform="translate(180.461 55.417)">
        <path id="Path_479" data-name="Path 479" d="M427.775,561.779a4.018,4.018,0,1,1,4.018,4.018A4.024,4.024,0,0,1,427.775,561.779Zm7.284,0a3.265,3.265,0,1,0-3.266,3.266A3.269,3.269,0,0,0,435.059,561.779Z" transform="translate(-427.775 -557.761)" fill="#fff"/>
      </g>
      <g id="Group_669" data-name="Group 669" transform="translate(3.83 8.021)">
        <rect id="Rectangle_151" data-name="Rectangle 151" width="0.377" height="51.238" fill="#fff"/>
      </g>
      <g id="Group_670" data-name="Group 670" transform="translate(3.827 59.266)">
        <rect id="Rectangle_152" data-name="Rectangle 152" width="177.024" height="0.377" fill="#fff"/>
      </g>
    </g>
    <g id="Group_676" data-name="Group 676" transform="translate(363.889 41.173)">
      <g id="Group_672" data-name="Group 672">
        <path id="Path_480" data-name="Path 480" d="M348.931,532.35a4.018,4.018,0,1,1,4.018,4.018A4.023,4.023,0,0,1,348.931,532.35Zm7.282,0a3.265,3.265,0,1,0-3.264,3.266A3.268,3.268,0,0,0,356.213,532.35Z" transform="translate(-348.931 -528.332)" fill="#fff"/>
      </g>
      <g id="Group_673" data-name="Group 673" transform="translate(180.461 55.417)">
        <path id="Path_481" data-name="Path 481" d="M431.98,557.853A4.018,4.018,0,1,1,436,561.871,4.022,4.022,0,0,1,431.98,557.853Zm7.281,0A3.265,3.265,0,1,0,436,561.119,3.268,3.268,0,0,0,439.261,557.853Z" transform="translate(-431.98 -553.835)" fill="#fff"/>
      </g>
      <g id="Group_674" data-name="Group 674" transform="translate(3.829 8.021)">
        <rect id="Rectangle_153" data-name="Rectangle 153" width="0.377" height="51.238" fill="#fff"/>
      </g>
      <g id="Group_675" data-name="Group 675" transform="translate(3.826 59.266)">
        <rect id="Rectangle_154" data-name="Rectangle 154" width="177.024" height="0.377" fill="#fff"/>
      </g>
    </g>
    <g id="Group_680" data-name="Group 680" transform="translate(146.52 146.691)">
      <g id="Group_677" data-name="Group 677" transform="translate(51.606)">
        <path id="Path_482" data-name="Path 482" d="M276.664,576.892a4.018,4.018,0,1,1-4.018,4.018A4.021,4.021,0,0,1,276.664,576.892Zm0,7.281a3.264,3.264,0,1,0-3.264-3.264A3.268,3.268,0,0,0,276.664,584.173Z" transform="translate(-272.646 -576.892)" fill="#fff"/>
      </g>
      <g id="Group_678" data-name="Group 678" transform="translate(0.384 3.829)">
        <rect id="Rectangle_155" data-name="Rectangle 155" width="51.238" height="0.377" fill="#fff"/>
      </g>
      <g id="Group_679" data-name="Group 679" transform="translate(0 3.826)">
        <rect id="Rectangle_156" data-name="Rectangle 156" width="0.377" height="85.026" fill="#fff"/>
      </g>
    </g>
    <g id="Group_685" data-name="Group 685" transform="translate(15.907 36.949)">
      <g id="Group_681" data-name="Group 681" transform="translate(180.461 55.417)">
        <path id="Path_483" data-name="Path 483" d="M279.873,555.909a4.018,4.018,0,1,1-4.018-4.018A4.024,4.024,0,0,1,279.873,555.909Zm-7.282,0a3.264,3.264,0,1,0,3.264-3.264A3.268,3.268,0,0,0,272.591,555.909Z" transform="translate(-271.837 -551.891)" fill="#fff"/>
      </g>
      <g id="Group_682" data-name="Group 682">
        <path id="Path_484" data-name="Path 484" d="M196.824,530.406a4.018,4.018,0,1,1-4.018-4.018A4.024,4.024,0,0,1,196.824,530.406Zm-7.282,0a3.264,3.264,0,1,0,3.264-3.264A3.267,3.267,0,0,0,189.542,530.406Z" transform="translate(-188.788 -526.388)" fill="#fff"/>
      </g>
      <g id="Group_683" data-name="Group 683" transform="translate(184.29 4.194)">
        <rect id="Rectangle_157" data-name="Rectangle 157" width="0.377" height="51.238" fill="#fff"/>
      </g>
      <g id="Group_684" data-name="Group 684" transform="translate(7.645 3.81)">
        <rect id="Rectangle_158" data-name="Rectangle 158" width="177.024" height="0.377" fill="#fff"/>
      </g>
    </g>
    <g id="Group_690" data-name="Group 690" transform="translate(138.685 135.301)">
      <g id="Group_686" data-name="Group 686" transform="translate(180.461 55.417)">
        <path id="Path_485" data-name="Path 485" d="M336.376,601.171a4.018,4.018,0,1,1-4.018-4.018A4.022,4.022,0,0,1,336.376,601.171Zm-7.282,0a3.265,3.265,0,1,0,3.264-3.266A3.268,3.268,0,0,0,329.094,601.171Z" transform="translate(-328.34 -597.153)" fill="#fff"/>
      </g>
      <g id="Group_687" data-name="Group 687">
        <path id="Path_486" data-name="Path 486" d="M253.327,575.668a4.018,4.018,0,1,1-4.018-4.018A4.022,4.022,0,0,1,253.327,575.668Zm-7.282,0a3.264,3.264,0,1,0,3.264-3.266A3.268,3.268,0,0,0,246.045,575.668Z" transform="translate(-245.291 -571.65)" fill="#fff"/>
      </g>
      <g id="Group_688" data-name="Group 688" transform="translate(184.291 4.194)">
        <rect id="Rectangle_159" data-name="Rectangle 159" width="0.377" height="51.238" fill="#fff"/>
      </g>
      <g id="Group_689" data-name="Group 689" transform="translate(7.646 3.81)">
        <rect id="Rectangle_160" data-name="Rectangle 160" width="177.024" height="0.377" fill="#fff"/>
      </g>
    </g>
  </g>
</svg>
